HIERARCHY
ROOT Hips
{
	OFFSET 0.000000 71.427986 0.000000
	CHANNELS 6 Xposition Yposition Zposition Xrotation Yrotation Zrotation
	JOINT Pelvis
	{
		OFFSET 0.000000 0.000000 0.000000
		CHANNELS 3 Xrotation Yrotation Zrotation
		JOINT LeftUpLeg
		{
			OFFSET 6.797100 -2.508499 -1.318700
			CHANNELS 3 Xrotation Yrotation Zrotation
			JOINT LeftLeg
			{
				OFFSET 0.069008 -29.241863 0.690200
				CHANNELS 3 Xrotation Yrotation Zrotation
				JOINT LeftFoot
				{
					OFFSET -0.069008 -29.568123 -0.266800
					CHANNELS 3 Xrotation Yrotation Zrotation
					JOINT LeftToeBase
					{
						OFFSET 3.145500 -8.631000 16.059900
						CHANNELS 3 Xrotation Yrotation Zrotation
						End Site
						{
							OFFSET 0.000000 18.501587 0.000000
						}
					}
				}
			}
			JOINT Left_ShortSleeve
			{
				OFFSET 0.265923 -10.480953 1.153800
				CHANNELS 3 Xrotation Yrotation Zrotation
				End Site
				{
					OFFSET 1.725763 19.823879 0.000000
				}
			}
		}
		JOINT RightUpLeg
		{
			OFFSET -6.797100 -2.508499 -1.318700
			CHANNELS 3 Xrotation Yrotation Zrotation
			JOINT RightLeg
			{
				OFFSET -0.082453 -29.241932 0.688000
				CHANNELS 3 Xrotation Yrotation Zrotation
				JOINT RightFoot
				{
					OFFSET 0.082453 -29.568058 -0.264600
					CHANNELS 3 Xrotation Yrotation Zrotation
					JOINT RightToeBase
					{
						OFFSET -3.115300 -8.682800 16.113400
						CHANNELS 3 Xrotation Yrotation Zrotation
						End Site
						{
							OFFSET 0.000000 18.567114 0.000000
						}
					}
				}
			}
			JOINT Right_ShortSleeve
			{
				OFFSET -0.265923 -10.480953 1.153800
				CHANNELS 3 Xrotation Yrotation Zrotation
				End Site
				{
					OFFSET -1.725766 19.823910 0.000000
				}
			}
		}
	}
	JOINT Spine
	{
		OFFSET 0.000000 13.368103 0.470500
		CHANNELS 3 Xrotation Yrotation Zrotation
		JOINT Spine1
		{
			OFFSET 0.147000 13.837402 0.538800
			CHANNELS 3 Xrotation Yrotation Zrotation
			JOINT Spine2
			{
				OFFSET 0.168000 16.242897 -1.435500
				CHANNELS 3 Xrotation Yrotation Zrotation
				JOINT Neck
				{
					OFFSET 0.217200 18.631500 -1.679100
					CHANNELS 3 Xrotation Yrotation Zrotation
					JOINT Head
					{
						OFFSET 0.000000 6.599396 1.385900
						CHANNELS 3 Xrotation Yrotation Zrotation
						JOINT Hat
						{
							OFFSET -0.532200 27.220596 -10.096100
							CHANNELS 3 Xrotation Yrotation Zrotation
							End Site
							{
								OFFSET 0.000000 22.029861 0.000000
							}
						}
						JOINT HairD
						{
							OFFSET -10.777400 17.437393 -1.325900
							CHANNELS 3 Xrotation Yrotation Zrotation
							JOINT HairD1
							{
								OFFSET -3.290299 -11.051193 1.062200
								CHANNELS 3 Xrotation Yrotation Zrotation
								End Site
								{
									OFFSET 0.000000 11.579437 0.000000
								}
							}
						}
						JOINT HairB
						{
							OFFSET -10.777400 17.437393 1.467900
							CHANNELS 3 Xrotation Yrotation Zrotation
							JOINT HairB1
							{
								OFFSET -1.561200 -12.956299 3.590200
								CHANNELS 3 Xrotation Yrotation Zrotation
								End Site
								{
									OFFSET 0.000000 13.534866 0.000000
								}
							}
						}
						JOINT HairA
						{
							OFFSET 9.713100 17.437393 1.467900
							CHANNELS 3 Xrotation Yrotation Zrotation
							JOINT HairA1
							{
								OFFSET 1.561200 -12.956299 3.590200
								CHANNELS 3 Xrotation Yrotation Zrotation
								End Site
								{
									OFFSET 0.000000 13.534866 0.000000
								}
							}
						}
						JOINT HairC
						{
							OFFSET 9.713100 17.437393 -1.325900
							CHANNELS 3 Xrotation Yrotation Zrotation
							JOINT HairC1
							{
								OFFSET 3.290300 -11.051193 1.062200
								CHANNELS 3 Xrotation Yrotation Zrotation
								End Site
								{
									OFFSET 0.000000 11.579437 0.000000
								}
							}
						}
					}
				}
				JOINT LeftShoulder
				{
					OFFSET 5.101800 15.108002 -2.763700
					CHANNELS 3 Xrotation Yrotation Zrotation
					JOINT LeftArm
					{
						OFFSET 9.825497 2.506317 -1.597400
						CHANNELS 3 Xrotation Yrotation Zrotation
						JOINT LeftForeArm
						{
							OFFSET 21.966244 0.000000 0.000000
							CHANNELS 3 Xrotation Yrotation Zrotation
							JOINT LeftHand
							{
								OFFSET 33.879036 0.000000 0.000000
								CHANNELS 3 Xrotation Yrotation Zrotation
								JOINT LeftHandThumb1
								{
									OFFSET 6.715286 -2.359680 3.363841
									CHANNELS 3 Xrotation Yrotation Zrotation
									JOINT LeftHandThumb2
									{
										OFFSET 2.507072 -1.447464 1.447461
										CHANNELS 3 Xrotation Yrotation Zrotation
										JOINT LeftHandThumb3
										{
											OFFSET 2.898338 -1.673355 1.673357
											CHANNELS 3 Xrotation Yrotation Zrotation
											End Site
											{
												OFFSET -0.295959 3.727692 -0.131651
											}
										}
									}
								}
								JOINT LeftHandIndex1
								{
									OFFSET 14.190811 -0.254547 3.840278
									CHANNELS 3 Xrotation Yrotation Zrotation
									JOINT LeftHandIndex2
									{
										OFFSET 3.551727 0.000000 -0.000000
										CHANNELS 3 Xrotation Yrotation Zrotation
										JOINT LeftHandIndex3
										{
											OFFSET 2.894196 0.000000 0.000000
											CHANNELS 3 Xrotation Yrotation Zrotation
											End Site
											{
												OFFSET -1.000603 2.690872 0.366626
											}
										}
									}
								}
								JOINT LeftHandMiddle1
								{
									OFFSET 13.776489 0.000000 0.000000
									CHANNELS 3 Xrotation Yrotation Zrotation
									JOINT LeftHandMiddle2
									{
										OFFSET 3.438232 0.000000 0.000000
										CHANNELS 3 Xrotation Yrotation Zrotation
										JOINT LeftHandMiddle3
										{
											OFFSET 3.691551 0.000000 0.000000
											CHANNELS 3 Xrotation Yrotation Zrotation
											End Site
											{
												OFFSET -1.082298 3.499527 0.457670
											}
										}
									}
								}
								JOINT LeftHandRing1
								{
									OFFSET 13.966164 -0.268127 -3.067488
									CHANNELS 3 Xrotation Yrotation Zrotation
									JOINT LeftHandRing2
									{
										OFFSET 3.162567 0.000000 0.000000
										CHANNELS 3 Xrotation Yrotation Zrotation
										JOINT LeftHandRing3
										{
											OFFSET 3.324348 0.000000 0.000000
											CHANNELS 3 Xrotation Yrotation Zrotation
											End Site
											{
												OFFSET -0.861900 3.184998 0.405154
											}
										}
									}
								}
								JOINT LeftHandPinky1
								{
									OFFSET 13.131393 -0.168503 -5.746925
									CHANNELS 3 Xrotation Yrotation Zrotation
									JOINT LeftHandPinky2
									{
										OFFSET 2.849182 0.000000 0.000000
										CHANNELS 3 Xrotation Yrotation Zrotation
										JOINT LeftHandPinky3
										{
											OFFSET 2.805038 0.000000 0.000000
											CHANNELS 3 Xrotation Yrotation Zrotation
											End Site
											{
												OFFSET -0.882500 2.642609 0.325652
											}
										}
									}
								}
							}
							JOINT Left_Sleeve
							{
								OFFSET 6.592125 -0.646545 0.805568
								CHANNELS 3 Xrotation Yrotation Zrotation
								End Site
								{
									OFFSET -0.000179 20.275787 -0.000000
								}
							}
						}
					}
				}
				JOINT RightShoulder
				{
					OFFSET -5.731700 15.108002 -2.763700
					CHANNELS 3 Xrotation Yrotation Zrotation
					JOINT RightArm
					{
						OFFSET -9.825497 2.506317 -1.597400
						CHANNELS 3 Xrotation Yrotation Zrotation
						JOINT RightForeArm
						{
							OFFSET -21.966242 0.000000 0.000000
							CHANNELS 3 Xrotation Yrotation Zrotation
							JOINT RightHand
							{
								OFFSET -33.879032 0.000000 0.000000
								CHANNELS 3 Xrotation Yrotation Zrotation
								JOINT RightHandThumb1
								{
									OFFSET -6.715286 -2.359680 3.363841
									CHANNELS 3 Xrotation Yrotation Zrotation
									JOINT RightHandThumb2
									{
										OFFSET -2.507072 -1.447464 1.447461
										CHANNELS 3 Xrotation Yrotation Zrotation
										JOINT RightHandThumb3
										{
											OFFSET -2.898338 -1.673355 1.673357
											CHANNELS 3 Xrotation Yrotation Zrotation
											End Site
											{
												OFFSET 0.295959 3.727692 -0.131651
											}
										}
									}
								}
								JOINT RightHandIndex1
								{
									OFFSET -14.190811 -0.254547 3.840278
									CHANNELS 3 Xrotation Yrotation Zrotation
									JOINT RightHandIndex2
									{
										OFFSET -3.551727 0.000000 -0.000000
										CHANNELS 3 Xrotation Yrotation Zrotation
										JOINT RightHandIndex3
										{
											OFFSET -2.894196 0.000000 0.000000
											CHANNELS 3 Xrotation Yrotation Zrotation
											End Site
											{
												OFFSET 1.000603 2.690872 0.366626
											}
										}
									}
								}
								JOINT RightHandMiddle1
								{
									OFFSET -13.776489 0.000000 0.000000
									CHANNELS 3 Xrotation Yrotation Zrotation
									JOINT RightHandMiddle2
									{
										OFFSET -3.438232 0.000000 0.000000
										CHANNELS 3 Xrotation Yrotation Zrotation
										JOINT RightHandMiddle3
										{
											OFFSET -3.691551 0.000000 0.000000
											CHANNELS 3 Xrotation Yrotation Zrotation
											End Site
											{
												OFFSET 1.082298 3.499527 0.457670
											}
										}
									}
								}
								JOINT RightHandRing1
								{
									OFFSET -13.966164 -0.268127 -3.067488
									CHANNELS 3 Xrotation Yrotation Zrotation
									JOINT RightHandRing2
									{
										OFFSET -3.162567 0.000000 0.000000
										CHANNELS 3 Xrotation Yrotation Zrotation
										JOINT RightHandRing3
										{
											OFFSET -3.324348 0.000000 0.000000
											CHANNELS 3 Xrotation Yrotation Zrotation
											End Site
											{
												OFFSET 0.861900 3.184998 0.405154
											}
										}
									}
								}
								JOINT RightHandPinky1
								{
									OFFSET -13.131393 -0.168503 -5.746925
									CHANNELS 3 Xrotation Yrotation Zrotation
									JOINT RightHandPinky2
									{
										OFFSET -2.849182 0.000000 0.000000
										CHANNELS 3 Xrotation Yrotation Zrotation
										JOINT RightHandPinky3
										{
											OFFSET -2.805038 0.000000 0.000000
											CHANNELS 3 Xrotation Yrotation Zrotation
											End Site
											{
												OFFSET 0.882500 2.642609 0.325652
											}
										}
									}
								}
							}
							JOINT Right_Sleeve
							{
								OFFSET -6.592125 -0.646545 0.805568
								CHANNELS 3 Xrotation Yrotation Zrotation
								End Site
								{
									OFFSET 0.000179 20.275787 -0.000000
								}
							}
						}
					}
				}
				JOINT Bind_Right_JacketString
				{
					OFFSET -3.534800 11.969597 7.200700
					CHANNELS 3 Xrotation Yrotation Zrotation
					JOINT Bind_Right_JacketString1
					{
						OFFSET -0.319900 -6.102600 2.794100
						CHANNELS 3 Xrotation Yrotation Zrotation
						End Site
						{
							OFFSET 0.000000 6.719452 0.000000
						}
					}
				}
				JOINT Bind_Left_JacketString
				{
					OFFSET 2.904800 11.969597 7.200700
					CHANNELS 3 Xrotation Yrotation Zrotation
					JOINT Bind_Left_JacketString1
					{
						OFFSET 0.364800 -5.904503 3.186800
						CHANNELS 3 Xrotation Yrotation Zrotation
						End Site
						{
							OFFSET 0.000000 6.719513 0.000000
						}
					}
				}
				JOINT HairE
				{
					OFFSET 5.915200 17.612701 -11.592200
					CHANNELS 3 Xrotation Yrotation Zrotation
					JOINT HairE1
					{
						OFFSET 0.289200 -7.171898 -1.284500
						CHANNELS 3 Xrotation Yrotation Zrotation
						End Site
						{
							OFFSET 0.000000 7.291756 0.000000
						}
					}
				}
				JOINT HairF
				{
					OFFSET -0.864800 17.612701 -11.592200
					CHANNELS 3 Xrotation Yrotation Zrotation
					JOINT HairF1
					{
						OFFSET 0.000000 -14.087097 -2.127501
						CHANNELS 3 Xrotation Yrotation Zrotation
						End Site
						{
							OFFSET 0.000000 14.246841 0.000000
						}
					}
				}
				JOINT HairG
				{
					OFFSET -8.087700 17.612701 -11.592200
					CHANNELS 3 Xrotation Yrotation Zrotation
					JOINT HairG1
					{
						OFFSET -0.293600 -6.081398 -0.910100
						CHANNELS 3 Xrotation Yrotation Zrotation
						End Site
						{
							OFFSET 0.000000 6.156120 0.000000
						}
					}
				}
			}
		}
	}
	JOINT Pouch
	{
		OFFSET 0.000000 4.394501 10.847300
		CHANNELS 3 Xrotation Yrotation Zrotation
		End Site
		{
			OFFSET 0.000000 21.880577 0.000000
		}
	}
	JOINT Bag
	{
		OFFSET -13.229000 4.813004 -0.593300
		CHANNELS 3 Xrotation Yrotation Zrotation
		End Site
		{
			OFFSET 0.000000 21.880577 0.000000
		}
	}
	JOINT OccupyGuyFacialAnim_Joint
	{
		OFFSET 1.000000 -70.206398 -1.655000
		CHANNELS 3 Xrotation Yrotation Zrotation
		End Site
		{
			OFFSET 0.000000 21.880577 0.000000
		}
	}
}
MOTION
Frames: 4
Frame Time: 0.016667
-1.750187 64.863762 0.356250 51.377653 -70.851615 52.585859 0.000001 -0.000001 0.000000 -49.294626 2.016683 -2.391333 45.902416 -10.094046 1.478407 -13.182935 -0.293249 0.556453 -0.000000 -0.000000 0.000000 -0.000002 0.000001 0.000000 -43.254041 -5.241823 -17.563994 46.166799 -5.284125 -2.311520 -16.237088 -2.595538 14.097525 0.000000 -0.000000 -0.000000 0.000000 0.000001 -0.000000 7.797971 3.250621 4.285055 12.707903 6.406385 6.655389 12.728355 6.436543 6.586127 3.385421 -0.460126 2.258546 8.874425 1.648268 -4.487672 -0.000001 -0.000001 0.000000 -0.000001 -0.000001 0.000000 -0.000001 -0.000001 0.000000 -0.000001 -0.000001 0.000000 0.000001 -0.000001 0.000000 -0.000001 -0.000001 0.000000 0.000001 -0.000001 0.000000 -0.000001 -0.000001 0.000000 -0.000001 -0.000001 0.000000 0.608297 -2.105597 -11.581384 -46.459165 -29.078813 -92.550716 -0.000001 -20.859019 0.000009 -20.416223 18.957779 30.637927 55.682670 -2.117520 45.305560 81.950351 -1.423332 50.782480 0.000000 0.000007 -0.000001 0.230325 3.926592 -22.478602 5.723139 5.849654 -88.745310 0.000003 0.000001 -0.000002 6.341369 9.458926 -58.484267 6.990970 5.739311 -101.253333 -0.000000 0.000001 -0.000001 7.415874 8.807697 -74.918023 5.953052 5.850186 -91.000420 0.000000 -0.000001 0.000003 20.711396 9.388347 -85.840704 5.062030 5.797813 -82.236625 0.000001 -0.000000 0.000001 -0.000000 -0.000001 0.000001 -0.784363 15.466924 22.252679 -56.162887 25.008335 77.070946 0.000016 0.015598 -0.000009 -12.877764 -7.607202 2.872479 -0.787121 13.150268 -22.268099 11.690822 -49.505641 19.340381 0.000000 -0.000001 -0.000000 -2.857607 -16.672229 -11.849139 4.400787 -4.650098 86.841006 -0.000000 -0.000001 -0.000002 6.189301 -11.029362 41.067120 5.549091 -4.571156 101.053229 -0.000003 0.000000 0.000001 -0.865244 -4.640716 62.576322 4.860690 -4.652756 92.507549 0.000001 0.000000 -0.000003 -13.667247 -1.460359 72.993159 3.233217 -4.434614 72.178147 0.000000 0.000000 0.000002 0.000000 -0.000002 -0.000002 -0.000001 -0.000005 -0.000001 -0.000003 -0.000002 0.000001 -0.000001 -0.000005 -0.000002 -0.000001 -0.000005 -0.000002 -0.000001 -0.000005 -0.000001 -0.000003 -0.000002 0.000000 -0.000001 -0.000005 -0.000002 -0.000001 -0.000005 -0.000002 -0.000001 -0.000005 -0.000001 -0.000003 -0.000002 0.000000 0.000001 -0.000001 0.000000 0.000001 -0.000001 0.000000 0.000001 -0.000001 0.000000 
-1.755411 64.873604 0.398457 51.297282 -70.835120 52.491148 0.000001 -0.000000 -0.000000 -49.256852 2.005916 -2.432218 45.869358 -10.057587 1.477619 -13.174637 -0.303739 0.595476 -0.000000 0.000000 -0.000000 0.000001 -0.000000 -0.000001 -43.187850 -5.255816 -17.609657 46.085585 -5.245439 -2.283810 -16.202641 -2.635287 14.115779 0.000000 0.000000 -0.000000 -0.000001 -0.000000 -0.000000 7.799041 3.244867 4.272526 12.722933 6.393041 6.642677 12.744210 6.422136 6.572916 3.354592 -0.453956 2.186408 8.724220 1.871165 -4.553490 -0.000000 -0.000002 -0.000000 -0.000000 -0.000002 -0.000000 -0.000000 -0.000002 0.000000 -0.000000 -0.000002 -0.000000 -0.000000 -0.000000 0.000001 -0.000000 -0.000002 -0.000000 -0.000000 -0.000000 0.000001 -0.000000 -0.000002 -0.000000 -0.000000 -0.000002 -0.000000 0.608194 -2.112952 -11.540768 -46.406371 -29.046284 -92.578139 0.000003 -20.879926 -0.000002 -20.407340 18.976309 30.509362 55.367518 -2.060116 45.240919 83.883295 -1.387114 51.818511 -0.000000 0.000004 -0.000000 0.241773 3.953158 -22.443464 5.715997 5.849483 -88.675130 0.000001 0.000000 -0.000002 6.324674 9.455591 -58.401676 6.991001 5.739316 -101.253347 0.000002 0.000000 0.000001 7.408057 8.809487 -74.848478 5.949542 5.850232 -90.966017 -0.000000 -0.000000 0.000008 20.660084 9.415023 -85.725301 5.052629 5.796506 -82.143400 -0.000000 -0.000002 0.000003 0.000001 -0.000000 0.000000 -0.774900 15.458371 22.231166 -54.597291 24.896584 76.442897 0.000005 2.873082 0.000008 -12.870075 -9.290307 2.437201 -0.798229 13.174589 -22.271975 11.757521 -49.535882 19.412202 0.000002 -0.000004 0.000004 -2.848300 -16.689868 -11.803258 4.402677 -4.650217 86.864147 -0.000001 -0.000003 -0.000004 6.207318 -11.051161 41.060898 5.549101 -4.571144 101.053236 0.000001 -0.000000 0.000001 -0.875338 -4.637263 62.599387 4.858831 -4.652819 92.484286 0.000002 0.000000 -0.000004 -13.666204 -1.439290 72.929700 3.229964 -4.433568 72.135950 -0.000001 0.000001 -0.000001 -0.000002 0.000001 -0.000002 0.000003 0.000000 0.000002 0.000003 0.000000 0.000001 0.000003 0.000000 0.000002 0.000003 0.000000 0.000002 0.000003 0.000000 0.000002 0.000003 0.000000 0.000000 0.000003 0.000000 0.000002 0.000003 0.000000 0.000002 0.000003 0.000000 0.000002 0.000003 0.000000 0.000000 0.000001 -0.000000 -0.000000 0.000001 -0.000000 -0.000000 0.000001 -0.000000 -0.000000 
-1.756849 64.882019 0.441891 51.230855 -70.812983 52.414151 0.000001 -0.000001 -0.000000 -49.233100 1.974245 -2.478972 45.826352 -9.943639 1.461836 -13.138519 -0.307973 0.604515 -0.000000 0.000000 0.000000 -0.000001 0.000000 -0.000000 -43.136855 -5.267172 -17.659495 46.008042 -5.221184 -2.260265 -16.165173 -2.659696 14.140669 -0.000000 0.000000 -0.000000 0.000001 -0.000000 0.000000 7.800359 3.234214 4.262733 12.734702 6.382448 6.620569 12.753689 6.413122 6.553440 3.323819 -0.449304 2.118600 8.568378 2.100361 -4.603553 -0.000002 0.000001 0.000001 -0.000002 0.000001 0.000001 -0.000002 0.000001 0.000001 -0.000002 0.000001 0.000001 -0.000002 -0.000002 -0.000002 -0.000002 0.000001 0.000001 -0.000002 -0.000002 -0.000002 -0.000002 0.000001 0.000001 -0.000002 0.000001 0.000001 0.607742 -2.121761 -11.501765 -46.348776 -29.026193 -92.588719 0.000004 -20.910906 -0.000014 -20.414891 18.980107 30.448191 55.053428 -2.001793 45.179809 85.655326 -1.068796 52.951622 0.000001 0.000002 -0.000001 0.253185 3.979751 -22.408338 5.708857 5.849336 -88.604930 0.000000 0.000002 -0.000003 6.308000 9.452194 -58.319085 6.990961 5.739329 -101.253340 -0.000001 0.000001 0.000003 7.400218 8.811266 -74.778933 5.946035 5.850288 -90.931620 -0.000001 -0.000001 -0.000001 20.608667 9.441504 -85.609864 5.043209 5.795223 -82.050140 -0.000001 -0.000003 0.000004 0.000000 0.000001 0.000000 -0.771690 15.442481 22.219741 -54.175568 25.033926 76.267750 -0.000001 3.450915 0.000005 -13.186387 -9.532934 2.438381 -0.811479 13.198146 -22.276933 11.835196 -49.570170 19.494968 0.000001 0.000000 -0.000000 -2.834083 -16.711478 -11.736787 4.407190 -4.650463 86.920058 -0.000001 -0.000005 0.000001 6.223077 -11.065515 41.078930 5.549099 -4.571132 101.053243 0.000001 -0.000000 -0.000001 -0.885599 -4.633885 62.624638 4.855925 -4.652942 92.448571 0.000001 0.000000 -0.000001 -13.660878 -1.426068 72.885324 3.226706 -4.432532 72.093753 -0.000000 0.000001 0.000001 -0.000001 0.000001 0.000001 -0.000000 0.000000 -0.000000 -0.000002 0.000002 -0.000000 -0.000000 0.000000 0.000000 -0.000000 0.000000 0.000000 -0.000000 0.000000 -0.000000 -0.000002 0.000002 -0.000000 -0.000000 0.000000 0.000000 -0.000000 0.000000 0.000000 -0.000000 0.000000 -0.000000 -0.000002 0.000002 -0.000000 0.000001 -0.000001 -0.000000 0.000001 -0.000001 -0.000000 0.000001 -0.000001 -0.000000 
-1.756302 64.889557 0.486309 51.170001 -70.787917 52.344200 -0.000001 -0.000000 0.000000 -49.216851 1.981428 -2.528023 45.810256 -9.957655 1.466528 -13.144796 -0.319420 0.653878 -0.000000 0.000000 0.000000 0.000003 0.000000 -0.000001 -43.088976 -5.265319 -17.711335 45.933678 -5.188801 -2.230219 -16.126251 -2.700177 14.163389 -0.000000 -0.000000 -0.000000 0.000002 0.000000 0.000000 7.801477 3.228720 4.248519 12.748119 6.372643 6.603429 12.767396 6.402621 6.536450 3.292766 -0.439167 2.047271 8.416546 2.324651 -4.644371 0.000000 -0.000003 -0.000001 0.000000 -0.000003 -0.000001 0.000000 -0.000003 -0.000001 0.000000 -0.000003 -0.000001 0.000002 -0.000001 0.000002 0.000000 -0.000003 -0.000001 0.000002 -0.000001 0.000002 0.000000 -0.000003 -0.000001 0.000000 -0.000003 -0.000001 0.605205 -2.134126 -11.471712 -46.290419 -29.015344 -92.588528 -0.000019 -20.949843 -0.000019 -20.434125 18.977739 30.419262 54.740380 -1.942623 45.122210 87.181040 -0.340629 54.208432 0.000000 0.000002 -0.000000 0.264605 4.006398 -22.373277 5.701690 5.849139 -88.534715 0.000003 0.000000 -0.000002 6.291388 9.448818 -58.236529 6.990970 5.739312 -101.253333 0.000002 0.000003 -0.000001 7.392368 8.813031 -74.709415 5.942556 5.850370 -90.897230 -0.000001 -0.000001 -0.000003 20.557117 9.467807 -85.494427 5.033799 5.793914 -81.956915 -0.000000 -0.000003 0.000002 -0.000000 -0.000000 0.000000 -0.765682 15.424792 22.200341 -53.294750 25.069702 75.930796 0.000000 4.975360 0.000001 -13.266091 -10.397364 2.181850 -0.824676 13.208686 -22.283774 11.930307 -49.611670 19.594115 -0.000000 -0.000005 0.000000 -2.809474 -16.735779 -11.630369 4.407959 -4.650499 86.929409 -0.000000 0.000001 0.000000 6.238565 -11.074720 41.121161 5.549098 -4.571143 101.053236 -0.000001 0.000000 0.000001 -0.896620 -4.631374 62.666125 4.854699 -4.653002 92.433421 0.000000 -0.000000 -0.000001 -13.676185 -1.418097 72.876588 3.223433 -4.431459 72.051502 -0.000000 0.000000 0.000001 -0.000001 -0.000001 -0.000002 -0.000002 -0.000001 0.000000 -0.000000 -0.000001 -0.000000 -0.000002 -0.000001 -0.000000 -0.000002 -0.000001 -0.000000 -0.000002 -0.000001 0.000000 -0.000000 -0.000001 -0.000000 -0.000002 -0.000001 -0.000000 -0.000002 -0.000001 -0.000000 -0.000002 -0.000001 0.000000 -0.000000 -0.000001 -0.000000 -0.000001 -0.000000 0.000000 -0.000001 -0.000000 0.000000 -0.000001 -0.000000 0.000000 
